<mxfile host="app.diagrams.net" modified="2022-03-04T14:02:00.104Z" agent="5.0 (Windows NT 10.0; Win64; x64) AppleWebKit/537.36 (KHTML, like Gecko) Chrome/98.0.4758.102 Safari/537.36" etag="j8gIReIke2lQ6qbxKZ3d" version="16.6.4" type="github">
  <diagram id="ZNzPRNDJbozVU3yyXhan" name="Page-1">
    <mxGraphModel dx="1422" dy="772" grid="1" gridSize="10" guides="1" tooltips="1" connect="1" arrows="1" fold="1" page="1" pageScale="1" pageWidth="827" pageHeight="1169" math="0" shadow="0">
      <root>
        <mxCell id="0" />
        <mxCell id="1" parent="0" />
        <mxCell id="MBuZ7zCFEy0hJhW4UmZy-1" value="" style="group" vertex="1" connectable="0" parent="1">
          <mxGeometry x="50" y="170" width="180" height="30" as="geometry" />
        </mxCell>
        <mxCell id="MBuZ7zCFEy0hJhW4UmZy-2" value="" style="whiteSpace=wrap;html=1;aspect=fixed;" vertex="1" parent="MBuZ7zCFEy0hJhW4UmZy-1">
          <mxGeometry width="30" height="30" as="geometry" />
        </mxCell>
        <mxCell id="MBuZ7zCFEy0hJhW4UmZy-3" value="" style="whiteSpace=wrap;html=1;aspect=fixed;" vertex="1" parent="MBuZ7zCFEy0hJhW4UmZy-1">
          <mxGeometry x="30" width="30" height="30" as="geometry" />
        </mxCell>
        <mxCell id="MBuZ7zCFEy0hJhW4UmZy-4" value="" style="whiteSpace=wrap;html=1;aspect=fixed;" vertex="1" parent="MBuZ7zCFEy0hJhW4UmZy-1">
          <mxGeometry x="60" width="30" height="30" as="geometry" />
        </mxCell>
        <mxCell id="MBuZ7zCFEy0hJhW4UmZy-5" value="" style="whiteSpace=wrap;html=1;aspect=fixed;" vertex="1" parent="MBuZ7zCFEy0hJhW4UmZy-1">
          <mxGeometry x="90" width="30" height="30" as="geometry" />
        </mxCell>
        <mxCell id="MBuZ7zCFEy0hJhW4UmZy-6" value="" style="whiteSpace=wrap;html=1;aspect=fixed;" vertex="1" parent="MBuZ7zCFEy0hJhW4UmZy-1">
          <mxGeometry x="120" width="30" height="30" as="geometry" />
        </mxCell>
        <mxCell id="MBuZ7zCFEy0hJhW4UmZy-7" value="" style="whiteSpace=wrap;html=1;aspect=fixed;" vertex="1" parent="MBuZ7zCFEy0hJhW4UmZy-1">
          <mxGeometry x="150" width="30" height="30" as="geometry" />
        </mxCell>
        <mxCell id="MBuZ7zCFEy0hJhW4UmZy-8" value="" style="group" vertex="1" connectable="0" parent="1">
          <mxGeometry x="50" y="200" width="180" height="30" as="geometry" />
        </mxCell>
        <mxCell id="MBuZ7zCFEy0hJhW4UmZy-9" value="" style="whiteSpace=wrap;html=1;aspect=fixed;" vertex="1" parent="MBuZ7zCFEy0hJhW4UmZy-8">
          <mxGeometry width="30" height="30" as="geometry" />
        </mxCell>
        <mxCell id="MBuZ7zCFEy0hJhW4UmZy-10" value="" style="whiteSpace=wrap;html=1;aspect=fixed;" vertex="1" parent="MBuZ7zCFEy0hJhW4UmZy-8">
          <mxGeometry x="30" width="30" height="30" as="geometry" />
        </mxCell>
        <mxCell id="MBuZ7zCFEy0hJhW4UmZy-11" value="" style="whiteSpace=wrap;html=1;aspect=fixed;" vertex="1" parent="MBuZ7zCFEy0hJhW4UmZy-8">
          <mxGeometry x="60" width="30" height="30" as="geometry" />
        </mxCell>
        <mxCell id="MBuZ7zCFEy0hJhW4UmZy-12" value="" style="whiteSpace=wrap;html=1;aspect=fixed;" vertex="1" parent="MBuZ7zCFEy0hJhW4UmZy-8">
          <mxGeometry x="90" width="30" height="30" as="geometry" />
        </mxCell>
        <mxCell id="MBuZ7zCFEy0hJhW4UmZy-13" value="" style="whiteSpace=wrap;html=1;aspect=fixed;" vertex="1" parent="MBuZ7zCFEy0hJhW4UmZy-8">
          <mxGeometry x="120" width="30" height="30" as="geometry" />
        </mxCell>
        <mxCell id="MBuZ7zCFEy0hJhW4UmZy-14" value="" style="whiteSpace=wrap;html=1;aspect=fixed;" vertex="1" parent="MBuZ7zCFEy0hJhW4UmZy-8">
          <mxGeometry x="150" width="30" height="30" as="geometry" />
        </mxCell>
        <mxCell id="MBuZ7zCFEy0hJhW4UmZy-15" value="" style="group" vertex="1" connectable="0" parent="1">
          <mxGeometry x="50" y="230" width="180" height="30" as="geometry" />
        </mxCell>
        <mxCell id="MBuZ7zCFEy0hJhW4UmZy-16" value="" style="whiteSpace=wrap;html=1;aspect=fixed;" vertex="1" parent="MBuZ7zCFEy0hJhW4UmZy-15">
          <mxGeometry width="30" height="30" as="geometry" />
        </mxCell>
        <mxCell id="MBuZ7zCFEy0hJhW4UmZy-17" value="" style="whiteSpace=wrap;html=1;aspect=fixed;" vertex="1" parent="MBuZ7zCFEy0hJhW4UmZy-15">
          <mxGeometry x="30" width="30" height="30" as="geometry" />
        </mxCell>
        <mxCell id="MBuZ7zCFEy0hJhW4UmZy-18" value="" style="whiteSpace=wrap;html=1;aspect=fixed;" vertex="1" parent="MBuZ7zCFEy0hJhW4UmZy-15">
          <mxGeometry x="60" width="30" height="30" as="geometry" />
        </mxCell>
        <mxCell id="MBuZ7zCFEy0hJhW4UmZy-19" value="" style="whiteSpace=wrap;html=1;aspect=fixed;" vertex="1" parent="MBuZ7zCFEy0hJhW4UmZy-15">
          <mxGeometry x="90" width="30" height="30" as="geometry" />
        </mxCell>
        <mxCell id="MBuZ7zCFEy0hJhW4UmZy-20" value="" style="whiteSpace=wrap;html=1;aspect=fixed;" vertex="1" parent="MBuZ7zCFEy0hJhW4UmZy-15">
          <mxGeometry x="120" width="30" height="30" as="geometry" />
        </mxCell>
        <mxCell id="MBuZ7zCFEy0hJhW4UmZy-21" value="" style="whiteSpace=wrap;html=1;aspect=fixed;" vertex="1" parent="MBuZ7zCFEy0hJhW4UmZy-15">
          <mxGeometry x="150" width="30" height="30" as="geometry" />
        </mxCell>
        <mxCell id="MBuZ7zCFEy0hJhW4UmZy-22" value="" style="group" vertex="1" connectable="0" parent="1">
          <mxGeometry x="50" y="260" width="180" height="30" as="geometry" />
        </mxCell>
        <mxCell id="MBuZ7zCFEy0hJhW4UmZy-23" value="" style="whiteSpace=wrap;html=1;aspect=fixed;" vertex="1" parent="MBuZ7zCFEy0hJhW4UmZy-22">
          <mxGeometry width="30" height="30" as="geometry" />
        </mxCell>
        <mxCell id="MBuZ7zCFEy0hJhW4UmZy-24" value="" style="whiteSpace=wrap;html=1;aspect=fixed;" vertex="1" parent="MBuZ7zCFEy0hJhW4UmZy-22">
          <mxGeometry x="30" width="30" height="30" as="geometry" />
        </mxCell>
        <mxCell id="MBuZ7zCFEy0hJhW4UmZy-25" value="" style="whiteSpace=wrap;html=1;aspect=fixed;" vertex="1" parent="MBuZ7zCFEy0hJhW4UmZy-22">
          <mxGeometry x="60" width="30" height="30" as="geometry" />
        </mxCell>
        <mxCell id="MBuZ7zCFEy0hJhW4UmZy-26" value="" style="whiteSpace=wrap;html=1;aspect=fixed;" vertex="1" parent="MBuZ7zCFEy0hJhW4UmZy-22">
          <mxGeometry x="90" width="30" height="30" as="geometry" />
        </mxCell>
        <mxCell id="MBuZ7zCFEy0hJhW4UmZy-27" value="" style="whiteSpace=wrap;html=1;aspect=fixed;" vertex="1" parent="MBuZ7zCFEy0hJhW4UmZy-22">
          <mxGeometry x="120" width="30" height="30" as="geometry" />
        </mxCell>
        <mxCell id="MBuZ7zCFEy0hJhW4UmZy-28" value="" style="whiteSpace=wrap;html=1;aspect=fixed;" vertex="1" parent="MBuZ7zCFEy0hJhW4UmZy-22">
          <mxGeometry x="150" width="30" height="30" as="geometry" />
        </mxCell>
        <mxCell id="MBuZ7zCFEy0hJhW4UmZy-29" value="" style="group" vertex="1" connectable="0" parent="1">
          <mxGeometry x="50" y="290" width="180" height="30" as="geometry" />
        </mxCell>
        <mxCell id="MBuZ7zCFEy0hJhW4UmZy-30" value="" style="whiteSpace=wrap;html=1;aspect=fixed;" vertex="1" parent="MBuZ7zCFEy0hJhW4UmZy-29">
          <mxGeometry width="30" height="30" as="geometry" />
        </mxCell>
        <mxCell id="MBuZ7zCFEy0hJhW4UmZy-31" value="" style="whiteSpace=wrap;html=1;aspect=fixed;" vertex="1" parent="MBuZ7zCFEy0hJhW4UmZy-29">
          <mxGeometry x="30" width="30" height="30" as="geometry" />
        </mxCell>
        <mxCell id="MBuZ7zCFEy0hJhW4UmZy-32" value="" style="whiteSpace=wrap;html=1;aspect=fixed;" vertex="1" parent="MBuZ7zCFEy0hJhW4UmZy-29">
          <mxGeometry x="60" width="30" height="30" as="geometry" />
        </mxCell>
        <mxCell id="MBuZ7zCFEy0hJhW4UmZy-33" value="" style="whiteSpace=wrap;html=1;aspect=fixed;" vertex="1" parent="MBuZ7zCFEy0hJhW4UmZy-29">
          <mxGeometry x="90" width="30" height="30" as="geometry" />
        </mxCell>
        <mxCell id="MBuZ7zCFEy0hJhW4UmZy-34" value="" style="whiteSpace=wrap;html=1;aspect=fixed;" vertex="1" parent="MBuZ7zCFEy0hJhW4UmZy-29">
          <mxGeometry x="120" width="30" height="30" as="geometry" />
        </mxCell>
        <mxCell id="MBuZ7zCFEy0hJhW4UmZy-35" value="" style="whiteSpace=wrap;html=1;aspect=fixed;" vertex="1" parent="MBuZ7zCFEy0hJhW4UmZy-29">
          <mxGeometry x="150" width="30" height="30" as="geometry" />
        </mxCell>
        <mxCell id="MBuZ7zCFEy0hJhW4UmZy-36" value="" style="group" vertex="1" connectable="0" parent="1">
          <mxGeometry x="50" y="320" width="180" height="30" as="geometry" />
        </mxCell>
        <mxCell id="MBuZ7zCFEy0hJhW4UmZy-37" value="" style="whiteSpace=wrap;html=1;aspect=fixed;" vertex="1" parent="MBuZ7zCFEy0hJhW4UmZy-36">
          <mxGeometry width="30" height="30" as="geometry" />
        </mxCell>
        <mxCell id="MBuZ7zCFEy0hJhW4UmZy-38" value="" style="whiteSpace=wrap;html=1;aspect=fixed;" vertex="1" parent="MBuZ7zCFEy0hJhW4UmZy-36">
          <mxGeometry x="30" width="30" height="30" as="geometry" />
        </mxCell>
        <mxCell id="MBuZ7zCFEy0hJhW4UmZy-39" value="" style="whiteSpace=wrap;html=1;aspect=fixed;" vertex="1" parent="MBuZ7zCFEy0hJhW4UmZy-36">
          <mxGeometry x="60" width="30" height="30" as="geometry" />
        </mxCell>
        <mxCell id="MBuZ7zCFEy0hJhW4UmZy-40" value="" style="whiteSpace=wrap;html=1;aspect=fixed;" vertex="1" parent="MBuZ7zCFEy0hJhW4UmZy-36">
          <mxGeometry x="90" width="30" height="30" as="geometry" />
        </mxCell>
        <mxCell id="MBuZ7zCFEy0hJhW4UmZy-41" value="" style="whiteSpace=wrap;html=1;aspect=fixed;" vertex="1" parent="MBuZ7zCFEy0hJhW4UmZy-36">
          <mxGeometry x="120" width="30" height="30" as="geometry" />
        </mxCell>
        <mxCell id="MBuZ7zCFEy0hJhW4UmZy-42" value="" style="whiteSpace=wrap;html=1;aspect=fixed;" vertex="1" parent="MBuZ7zCFEy0hJhW4UmZy-36">
          <mxGeometry x="150" width="30" height="30" as="geometry" />
        </mxCell>
        <mxCell id="MBuZ7zCFEy0hJhW4UmZy-43" value="如上图，有多少个正方形？" style="text;html=1;align=center;verticalAlign=middle;resizable=0;points=[];autosize=1;" vertex="1" parent="1">
          <mxGeometry x="60" y="360" width="160" height="20" as="geometry" />
        </mxCell>
        <mxCell id="MBuZ7zCFEy0hJhW4UmZy-44" value="6 × 6" style="text;html=1;align=center;verticalAlign=middle;resizable=0;points=[];autosize=1;" vertex="1" parent="1">
          <mxGeometry x="30" y="390" width="40" height="20" as="geometry" />
        </mxCell>
        <mxCell id="MBuZ7zCFEy0hJhW4UmZy-45" value="+ 3 × 3" style="text;html=1;align=center;verticalAlign=middle;resizable=0;points=[];autosize=1;" vertex="1" parent="1">
          <mxGeometry x="150" y="390" width="50" height="20" as="geometry" />
        </mxCell>
        <mxCell id="MBuZ7zCFEy0hJhW4UmZy-46" value="&amp;nbsp;+ 2 × 2 + 1" style="text;html=1;align=center;verticalAlign=middle;resizable=0;points=[];autosize=1;" vertex="1" parent="1">
          <mxGeometry x="190" y="390" width="80" height="20" as="geometry" />
        </mxCell>
        <mxCell id="MBuZ7zCFEy0hJhW4UmZy-47" value="&amp;nbsp;+ 5 × 5" style="text;html=1;align=center;verticalAlign=middle;resizable=0;points=[];autosize=1;" vertex="1" parent="1">
          <mxGeometry x="54" y="390" width="60" height="20" as="geometry" />
        </mxCell>
        <mxCell id="MBuZ7zCFEy0hJhW4UmZy-48" value="+ 4 × 4" style="text;html=1;align=center;verticalAlign=middle;resizable=0;points=[];autosize=1;" vertex="1" parent="1">
          <mxGeometry x="105" y="390" width="50" height="20" as="geometry" />
        </mxCell>
        <mxCell id="MBuZ7zCFEy0hJhW4UmZy-49" value="" style="triangle;whiteSpace=wrap;html=1;rotation=-90;" vertex="1" parent="1">
          <mxGeometry x="360" y="10" width="140" height="180" as="geometry" />
        </mxCell>
        <mxCell id="MBuZ7zCFEy0hJhW4UmZy-50" value="" style="whiteSpace=wrap;html=1;aspect=fixed;" vertex="1" parent="1">
          <mxGeometry x="580" y="27.5" width="145" height="145" as="geometry" />
        </mxCell>
        <mxCell id="MBuZ7zCFEy0hJhW4UmZy-51" value="求证三角形的稳定性？" style="text;html=1;align=center;verticalAlign=middle;resizable=0;points=[];autosize=1;strokeColor=none;" vertex="1" parent="1">
          <mxGeometry x="460" y="190" width="140" height="20" as="geometry" />
        </mxCell>
        <mxCell id="MBuZ7zCFEy0hJhW4UmZy-52" value="&lt;font&gt;&lt;font&gt;&lt;span style=&quot;font-size: 12px&quot;&gt;&lt;br&gt;&lt;/span&gt;要证明三角形的稳定性。我们需要知道什么叫稳定性。&lt;br&gt;稳定性的含义是：如果在外力的作用下，能够存在静置或匀速或运动轨迹具有规律可循，那么一定具有另外的力与之相互作用。&lt;br&gt;且在相互作用力之下，有且仅有出现中心点（重心）为零的状态。才可以处于静置或匀速或轨道可循。这样的状态叫稳定态。&lt;br&gt;只有具备了稳定状态的属性，它便表现出稳定性。&lt;br&gt;稳定性的衡量指标还有一个特性是：参照物只可以是空间中若干个面交叉出来的一个点（并且它最终落到一个面上）。&lt;br&gt;如此一来，我们就把问题化空间为面证明。&lt;br&gt;&lt;b&gt;&lt;span style=&quot;font-size: 18px&quot;&gt;∵&amp;nbsp;&lt;/span&gt;&lt;span style=&quot;font-size: 12px&quot;&gt;三角形由三个顶点组成，&lt;br&gt;而且我们都知道：两个点形成线段，三个点决定一个面，且该面上由任意一个点引力，&lt;/span&gt;&lt;span style=&quot;font-size: 12px&quot;&gt;均出现力的唯一矢量性（垂直于三角形的另外一条边&amp;lt;底边&amp;gt;）。&lt;/span&gt;&lt;span style=&quot;font-size: 18px&quot;&gt;&amp;nbsp;&lt;/span&gt;&lt;br&gt;&lt;span style=&quot;font-size: 18px&quot;&gt;&amp;nbsp; &amp;nbsp;&amp;nbsp;&lt;/span&gt;&lt;span style=&quot;font-size: 12px&quot;&gt;四边形由四个点组成一个面，但是取任意一个点都有可能脱离该平面。此刻的形变不仅仅在一个平面，&lt;/span&gt;&lt;span style=&quot;font-size: 12px&quot;&gt;还出现在空间上。从四个点上任意一点引力，&lt;br&gt;均出找不到可承受边固定底边。&lt;/span&gt;&lt;br&gt;&lt;span style=&quot;font-size: 18px&quot;&gt;∴&amp;nbsp;&lt;/span&gt;&lt;span style=&quot;font-size: 12px&quot;&gt;力的矢量性，当被面固定以后，线的张力（同样存在矢量性）作用能够形成相互作用力，出现稳定态，并表现出稳定性。&lt;/span&gt;&lt;/b&gt;&lt;br&gt;&lt;/font&gt;&lt;/font&gt;" style="text;html=1;align=left;verticalAlign=middle;resizable=0;points=[];autosize=1;strokeColor=none;fontSize=15;" vertex="1" parent="1">
          <mxGeometry x="280" y="200" width="860" height="230" as="geometry" />
        </mxCell>
        <mxCell id="MBuZ7zCFEy0hJhW4UmZy-53" value="" style="endArrow=none;dashed=1;html=1;dashPattern=1 3;strokeWidth=2;exitX=0;exitY=1;exitDx=0;exitDy=0;entryX=1;entryY=0;entryDx=0;entryDy=0;" edge="1" parent="1" source="MBuZ7zCFEy0hJhW4UmZy-50" target="MBuZ7zCFEy0hJhW4UmZy-50">
          <mxGeometry width="50" height="50" relative="1" as="geometry">
            <mxPoint x="670" y="110" as="sourcePoint" />
            <mxPoint x="720" y="60" as="targetPoint" />
          </mxGeometry>
        </mxCell>
        <mxCell id="MBuZ7zCFEy0hJhW4UmZy-54" value="" style="endArrow=classic;html=1;exitX=1;exitY=0.5;exitDx=0;exitDy=0;entryX=0;entryY=0.5;entryDx=0;entryDy=0;" edge="1" parent="1" source="MBuZ7zCFEy0hJhW4UmZy-49" target="MBuZ7zCFEy0hJhW4UmZy-49">
          <mxGeometry width="50" height="50" relative="1" as="geometry">
            <mxPoint x="480" y="60" as="sourcePoint" />
            <mxPoint x="530" y="10" as="targetPoint" />
          </mxGeometry>
        </mxCell>
        <mxCell id="MBuZ7zCFEy0hJhW4UmZy-55" value="" style="endArrow=classic;html=1;exitX=0;exitY=0;exitDx=0;exitDy=0;entryX=1;entryY=1;entryDx=0;entryDy=0;" edge="1" parent="1" source="MBuZ7zCFEy0hJhW4UmZy-50" target="MBuZ7zCFEy0hJhW4UmZy-50">
          <mxGeometry width="50" height="50" relative="1" as="geometry">
            <mxPoint x="440" y="40" as="sourcePoint" />
            <mxPoint x="730" y="190" as="targetPoint" />
          </mxGeometry>
        </mxCell>
        <mxCell id="MBuZ7zCFEy0hJhW4UmZy-56" value="" style="shape=parallelogram;perimeter=parallelogramPerimeter;whiteSpace=wrap;html=1;fixedSize=1;" vertex="1" parent="1">
          <mxGeometry x="750" y="30" width="150" height="142.5" as="geometry" />
        </mxCell>
        <mxCell id="MBuZ7zCFEy0hJhW4UmZy-57" value="" style="endArrow=classic;html=1;entryX=0;entryY=0.75;entryDx=0;entryDy=0;dashed=1;" edge="1" parent="1" target="MBuZ7zCFEy0hJhW4UmZy-49">
          <mxGeometry width="50" height="50" relative="1" as="geometry">
            <mxPoint x="430" y="30" as="sourcePoint" />
            <mxPoint x="440" y="180" as="targetPoint" />
          </mxGeometry>
        </mxCell>
        <mxCell id="MBuZ7zCFEy0hJhW4UmZy-58" value="" style="endArrow=classic;html=1;entryX=0;entryY=0.25;entryDx=0;entryDy=0;dashed=1;" edge="1" parent="1" target="MBuZ7zCFEy0hJhW4UmZy-49">
          <mxGeometry width="50" height="50" relative="1" as="geometry">
            <mxPoint x="430" y="30" as="sourcePoint" />
            <mxPoint x="485" y="180" as="targetPoint" />
          </mxGeometry>
        </mxCell>
        <mxCell id="MBuZ7zCFEy0hJhW4UmZy-59" value="" style="endArrow=classic;html=1;entryX=0.867;entryY=0.996;entryDx=0;entryDy=0;entryPerimeter=0;exitX=0.14;exitY=0;exitDx=0;exitDy=0;exitPerimeter=0;" edge="1" parent="1" source="MBuZ7zCFEy0hJhW4UmZy-56" target="MBuZ7zCFEy0hJhW4UmZy-56">
          <mxGeometry width="50" height="50" relative="1" as="geometry">
            <mxPoint x="770" y="33" as="sourcePoint" />
            <mxPoint x="735" y="182.5" as="targetPoint" />
          </mxGeometry>
        </mxCell>
        <mxCell id="MBuZ7zCFEy0hJhW4UmZy-60" value="" style="endArrow=classic;html=1;entryX=0.5;entryY=1;entryDx=0;entryDy=0;dashed=1;" edge="1" parent="1" target="MBuZ7zCFEy0hJhW4UmZy-56">
          <mxGeometry width="50" height="50" relative="1" as="geometry">
            <mxPoint x="770" y="30" as="sourcePoint" />
            <mxPoint x="485" y="180" as="targetPoint" />
          </mxGeometry>
        </mxCell>
        <mxCell id="MBuZ7zCFEy0hJhW4UmZy-61" value="" style="endArrow=classic;html=1;entryX=1;entryY=0.75;entryDx=0;entryDy=0;dashed=1;exitX=0.167;exitY=0.014;exitDx=0;exitDy=0;exitPerimeter=0;" edge="1" parent="1" source="MBuZ7zCFEy0hJhW4UmZy-56" target="MBuZ7zCFEy0hJhW4UmZy-56">
          <mxGeometry width="50" height="50" relative="1" as="geometry">
            <mxPoint x="770" y="30" as="sourcePoint" />
            <mxPoint x="495" y="190" as="targetPoint" />
          </mxGeometry>
        </mxCell>
        <mxCell id="MBuZ7zCFEy0hJhW4UmZy-62" value="" style="endArrow=classic;html=1;entryX=0.703;entryY=1.003;entryDx=0;entryDy=0;dashed=1;entryPerimeter=0;" edge="1" parent="1" target="MBuZ7zCFEy0hJhW4UmZy-50">
          <mxGeometry width="50" height="50" relative="1" as="geometry">
            <mxPoint x="580" y="30" as="sourcePoint" />
            <mxPoint x="835" y="182.5" as="targetPoint" />
          </mxGeometry>
        </mxCell>
        <mxCell id="MBuZ7zCFEy0hJhW4UmZy-63" value="" style="endArrow=classic;html=1;entryX=1;entryY=0.75;entryDx=0;entryDy=0;dashed=1;" edge="1" parent="1" target="MBuZ7zCFEy0hJhW4UmZy-50">
          <mxGeometry width="50" height="50" relative="1" as="geometry">
            <mxPoint x="580" y="27" as="sourcePoint" />
            <mxPoint x="691.935" y="182.93499999999995" as="targetPoint" />
          </mxGeometry>
        </mxCell>
        <mxCell id="MBuZ7zCFEy0hJhW4UmZy-64" value="" style="edgeStyle=orthogonalEdgeStyle;rounded=0;orthogonalLoop=1;jettySize=auto;html=1;" edge="1" parent="1" source="MBuZ7zCFEy0hJhW4UmZy-66" target="MBuZ7zCFEy0hJhW4UmZy-68">
          <mxGeometry relative="1" as="geometry" />
        </mxCell>
        <mxCell id="MBuZ7zCFEy0hJhW4UmZy-65" value="" style="edgeStyle=orthogonalEdgeStyle;rounded=0;orthogonalLoop=1;jettySize=auto;html=1;" edge="1" parent="1" source="MBuZ7zCFEy0hJhW4UmZy-66" target="MBuZ7zCFEy0hJhW4UmZy-70">
          <mxGeometry relative="1" as="geometry" />
        </mxCell>
        <mxCell id="MBuZ7zCFEy0hJhW4UmZy-66" value="&lt;b&gt;算法&lt;/b&gt;" style="rounded=1;whiteSpace=wrap;html=1;fontSize=15;" vertex="1" parent="1">
          <mxGeometry x="80" y="460" width="110" height="30" as="geometry" />
        </mxCell>
        <mxCell id="MBuZ7zCFEy0hJhW4UmZy-67" value="" style="edgeStyle=orthogonalEdgeStyle;rounded=0;orthogonalLoop=1;jettySize=auto;html=1;" edge="1" parent="1" source="MBuZ7zCFEy0hJhW4UmZy-68" target="MBuZ7zCFEy0hJhW4UmZy-71">
          <mxGeometry relative="1" as="geometry" />
        </mxCell>
        <mxCell id="MBuZ7zCFEy0hJhW4UmZy-68" value="&lt;b&gt;良定义&lt;/b&gt;" style="rounded=1;whiteSpace=wrap;html=1;fontSize=15;" vertex="1" parent="1">
          <mxGeometry x="270" y="460" width="110" height="30" as="geometry" />
        </mxCell>
        <mxCell id="MBuZ7zCFEy0hJhW4UmZy-69" value="" style="edgeStyle=orthogonalEdgeStyle;rounded=0;orthogonalLoop=1;jettySize=auto;html=1;" edge="1" parent="1" source="MBuZ7zCFEy0hJhW4UmZy-70" target="MBuZ7zCFEy0hJhW4UmZy-71">
          <mxGeometry relative="1" as="geometry" />
        </mxCell>
        <mxCell id="MBuZ7zCFEy0hJhW4UmZy-70" value="&lt;b&gt;求解良说明&lt;/b&gt;" style="rounded=1;whiteSpace=wrap;html=1;fontSize=15;" vertex="1" parent="1">
          <mxGeometry x="80" y="570" width="110" height="30" as="geometry" />
        </mxCell>
        <mxCell id="MBuZ7zCFEy0hJhW4UmZy-71" value="&lt;b&gt;计算问题&lt;/b&gt;" style="rounded=1;whiteSpace=wrap;html=1;fontSize=15;" vertex="1" parent="1">
          <mxGeometry x="270" y="570" width="110" height="30" as="geometry" />
        </mxCell>
        <mxCell id="MBuZ7zCFEy0hJhW4UmZy-72" value="" style="endArrow=classic;html=1;exitX=1;exitY=0;exitDx=0;exitDy=0;entryX=0;entryY=1;entryDx=0;entryDy=0;" edge="1" parent="1" source="MBuZ7zCFEy0hJhW4UmZy-70" target="MBuZ7zCFEy0hJhW4UmZy-68">
          <mxGeometry width="50" height="50" relative="1" as="geometry">
            <mxPoint x="210" y="560" as="sourcePoint" />
            <mxPoint x="260" y="510" as="targetPoint" />
          </mxGeometry>
        </mxCell>
        <mxCell id="MBuZ7zCFEy0hJhW4UmZy-73" value="" style="rounded=1;whiteSpace=wrap;html=1;arcSize=1;" vertex="1" parent="1">
          <mxGeometry x="500" y="720" width="590" height="160" as="geometry" />
        </mxCell>
        <mxCell id="MBuZ7zCFEy0hJhW4UmZy-74" value="" style="endArrow=none;html=1;rounded=0;" edge="1" parent="1">
          <mxGeometry width="50" height="50" relative="1" as="geometry">
            <mxPoint x="620" y="741" as="sourcePoint" />
            <mxPoint x="1150" y="741" as="targetPoint" />
          </mxGeometry>
        </mxCell>
        <mxCell id="MBuZ7zCFEy0hJhW4UmZy-75" value="1楼餐厅" style="text;html=1;align=center;verticalAlign=middle;resizable=0;points=[];autosize=1;strokeColor=none;fillColor=none;" vertex="1" parent="1">
          <mxGeometry x="1010" y="850" width="60" height="20" as="geometry" />
        </mxCell>
        <mxCell id="MBuZ7zCFEy0hJhW4UmZy-76" value="" style="rounded=1;whiteSpace=wrap;html=1;arcSize=0;" vertex="1" parent="1">
          <mxGeometry x="500" y="560" width="590" height="160" as="geometry" />
        </mxCell>
        <mxCell id="MBuZ7zCFEy0hJhW4UmZy-77" value="2楼餐厅" style="text;html=1;align=center;verticalAlign=middle;resizable=0;points=[];autosize=1;strokeColor=none;fillColor=none;" vertex="1" parent="1">
          <mxGeometry x="990" y="690" width="60" height="20" as="geometry" />
        </mxCell>
        <mxCell id="MBuZ7zCFEy0hJhW4UmZy-78" value="" style="endArrow=none;dashed=1;html=1;rounded=0;exitX=0;exitY=1;exitDx=0;exitDy=0;entryX=1;entryY=1;entryDx=0;entryDy=0;strokeWidth=3;" edge="1" parent="1">
          <mxGeometry width="50" height="50" relative="1" as="geometry">
            <mxPoint x="500" y="718" as="sourcePoint" />
            <mxPoint x="1090" y="718" as="targetPoint" />
          </mxGeometry>
        </mxCell>
        <mxCell id="MBuZ7zCFEy0hJhW4UmZy-79" value="" style="verticalLabelPosition=bottom;html=1;verticalAlign=top;align=center;shape=mxgraph.floorplan.wall;fillColor=#000000;direction=south;" vertex="1" parent="1">
          <mxGeometry x="590" y="720" width="90" height="160" as="geometry" />
        </mxCell>
        <mxCell id="MBuZ7zCFEy0hJhW4UmZy-80" value="柱&lt;br&gt;子" style="text;html=1;align=center;verticalAlign=middle;resizable=0;points=[];autosize=1;strokeColor=none;fillColor=none;" vertex="1" parent="1">
          <mxGeometry x="637.5" y="750" width="30" height="30" as="geometry" />
        </mxCell>
        <mxCell id="MBuZ7zCFEy0hJhW4UmZy-81" value="" style="shape=filledEdge;rounded=0;fixDash=1;endArrow=none;strokeWidth=10;fillColor=#ffffff;edgeStyle=orthogonalEdgeStyle;" edge="1" parent="1">
          <mxGeometry width="60" height="40" relative="1" as="geometry">
            <mxPoint x="1070" y="737" as="sourcePoint" />
            <mxPoint x="620" y="727" as="targetPoint" />
            <Array as="points">
              <mxPoint x="617.5" y="737" />
            </Array>
          </mxGeometry>
        </mxCell>
        <mxCell id="MBuZ7zCFEy0hJhW4UmZy-82" value="01号网线末端位置&lt;br&gt;处于室内" style="text;html=1;align=center;verticalAlign=middle;resizable=0;points=[];autosize=1;strokeColor=none;fillColor=none;" vertex="1" parent="1">
          <mxGeometry x="940" y="770" width="110" height="30" as="geometry" />
        </mxCell>
        <mxCell id="MBuZ7zCFEy0hJhW4UmZy-83" value="02号网线末端位置（处于室外）" style="text;html=1;align=center;verticalAlign=middle;resizable=0;points=[];autosize=1;strokeColor=none;fillColor=none;" vertex="1" parent="1">
          <mxGeometry x="1100" y="770" width="180" height="20" as="geometry" />
        </mxCell>
        <mxCell id="MBuZ7zCFEy0hJhW4UmZy-84" value="" style="endArrow=classic;html=1;rounded=0;strokeWidth=1;exitX=0.883;exitY=0.05;exitDx=0;exitDy=0;exitPerimeter=0;dashed=1;" edge="1" parent="1" source="MBuZ7zCFEy0hJhW4UmZy-82">
          <mxGeometry width="50" height="50" relative="1" as="geometry">
            <mxPoint x="1150" y="880" as="sourcePoint" />
            <mxPoint x="1070" y="730" as="targetPoint" />
          </mxGeometry>
        </mxCell>
        <mxCell id="MBuZ7zCFEy0hJhW4UmZy-85" value="" style="endArrow=classic;html=1;rounded=0;strokeWidth=1;dashed=1;" edge="1" parent="1" source="MBuZ7zCFEy0hJhW4UmZy-83">
          <mxGeometry width="50" height="50" relative="1" as="geometry">
            <mxPoint x="1047.13" y="781" as="sourcePoint" />
            <mxPoint x="1150" y="740" as="targetPoint" />
          </mxGeometry>
        </mxCell>
      </root>
    </mxGraphModel>
  </diagram>
</mxfile>
